<mxfile host="app.diagrams.net" agent="Mozilla/5.0 (Macintosh; Intel Mac OS X 10_15_7) AppleWebKit/605.1.15 (KHTML, like Gecko) Version/18.3.1 Safari/605.1.15" version="26.2.14">
  <diagram name="Page-1" id="Fs0yFZXzRFH9uMIKgLQg">
    <mxGraphModel dx="1634" dy="831" grid="0" gridSize="10" guides="0" tooltips="1" connect="1" arrows="1" fold="1" page="0" pageScale="1" pageWidth="850" pageHeight="1100" math="0" shadow="0">
      <root>
        <mxCell id="0" />
        <mxCell id="1" parent="0" />
        <mxCell id="uHMyNf0UCAi8VWtBRE8t-1" style="edgeStyle=orthogonalEdgeStyle;rounded=0;orthogonalLoop=1;jettySize=auto;html=1;entryX=0.5;entryY=1;entryDx=0;entryDy=0;entryPerimeter=0;" edge="1" parent="1" source="uHMyNf0UCAi8VWtBRE8t-3" target="uHMyNf0UCAi8VWtBRE8t-24">
          <mxGeometry relative="1" as="geometry">
            <mxPoint x="263" y="96" as="targetPoint" />
            <Array as="points">
              <mxPoint x="167" y="156" />
              <mxPoint x="365" y="156" />
            </Array>
          </mxGeometry>
        </mxCell>
        <mxCell id="uHMyNf0UCAi8VWtBRE8t-2" value="persist thread" style="edgeLabel;html=1;align=center;verticalAlign=middle;resizable=0;points=[];" vertex="1" connectable="0" parent="uHMyNf0UCAi8VWtBRE8t-1">
          <mxGeometry x="-0.338" relative="1" as="geometry">
            <mxPoint as="offset" />
          </mxGeometry>
        </mxCell>
        <mxCell id="uHMyNf0UCAi8VWtBRE8t-3" value="Chat Agent&lt;div&gt;messages: list[str]&lt;/div&gt;" style="rounded=1;whiteSpace=wrap;html=1;fillColor=#dae8fc;strokeColor=#6c8ebf;verticalAlign=top;" vertex="1" parent="1">
          <mxGeometry x="107" y="199" width="120" height="60" as="geometry" />
        </mxCell>
        <mxCell id="uHMyNf0UCAi8VWtBRE8t-4" style="edgeStyle=orthogonalEdgeStyle;rounded=0;orthogonalLoop=1;jettySize=auto;html=1;entryX=0.5;entryY=1;entryDx=0;entryDy=0;entryPerimeter=0;" edge="1" parent="1" source="uHMyNf0UCAi8VWtBRE8t-5" target="uHMyNf0UCAi8VWtBRE8t-24">
          <mxGeometry relative="1" as="geometry">
            <mxPoint x="375" y="115" as="targetPoint" />
          </mxGeometry>
        </mxCell>
        <mxCell id="uHMyNf0UCAi8VWtBRE8t-5" value="Builder Agent&lt;div&gt;messages: list[str]&lt;/div&gt;&lt;div&gt;prompt: str&lt;/div&gt;" style="rounded=1;whiteSpace=wrap;html=1;fillColor=#dae8fc;strokeColor=#6c8ebf;verticalAlign=top;" vertex="1" parent="1">
          <mxGeometry x="305" y="199" width="120" height="60" as="geometry" />
        </mxCell>
        <mxCell id="uHMyNf0UCAi8VWtBRE8t-6" style="edgeStyle=orthogonalEdgeStyle;rounded=0;orthogonalLoop=1;jettySize=auto;html=1;exitX=0;exitY=0;exitDx=0;exitDy=0;" edge="1" parent="1" source="uHMyNf0UCAi8VWtBRE8t-7" target="uHMyNf0UCAi8VWtBRE8t-24">
          <mxGeometry relative="1" as="geometry" />
        </mxCell>
        <mxCell id="uHMyNf0UCAi8VWtBRE8t-7" value="Generator Agent&lt;div&gt;messages: list[str]&lt;br&gt;&lt;/div&gt;" style="rounded=1;whiteSpace=wrap;html=1;fillColor=#dae8fc;strokeColor=#6c8ebf;verticalAlign=top;" vertex="1" parent="1">
          <mxGeometry x="519" y="199" width="120" height="60" as="geometry" />
        </mxCell>
        <mxCell id="uHMyNf0UCAi8VWtBRE8t-10" style="edgeStyle=orthogonalEdgeStyle;rounded=0;orthogonalLoop=1;jettySize=auto;html=1;entryX=0;entryY=1;entryDx=0;entryDy=0;" edge="1" parent="1" source="uHMyNf0UCAi8VWtBRE8t-12" target="uHMyNf0UCAi8VWtBRE8t-5">
          <mxGeometry relative="1" as="geometry">
            <Array as="points">
              <mxPoint x="305" y="422" />
              <mxPoint x="305" y="422" />
            </Array>
          </mxGeometry>
        </mxCell>
        <mxCell id="uHMyNf0UCAi8VWtBRE8t-11" value="Listen to messages&lt;div&gt;from Chat Agent&lt;/div&gt;&lt;div&gt;message: str&lt;/div&gt;" style="edgeLabel;html=1;align=center;verticalAlign=middle;resizable=0;points=[];" vertex="1" connectable="0" parent="uHMyNf0UCAi8VWtBRE8t-10">
          <mxGeometry x="-0.3023" y="-1" relative="1" as="geometry">
            <mxPoint as="offset" />
          </mxGeometry>
        </mxCell>
        <mxCell id="uHMyNf0UCAi8VWtBRE8t-34" style="edgeStyle=orthogonalEdgeStyle;rounded=0;orthogonalLoop=1;jettySize=auto;html=1;exitX=0;exitY=0;exitDx=0;exitDy=0;entryX=0.5;entryY=1;entryDx=0;entryDy=0;" edge="1" parent="1" source="uHMyNf0UCAi8VWtBRE8t-12" target="uHMyNf0UCAi8VWtBRE8t-33">
          <mxGeometry relative="1" as="geometry" />
        </mxCell>
        <mxCell id="uHMyNf0UCAi8VWtBRE8t-35" value="Listen to all topics&lt;div&gt;To get status updates&lt;/div&gt;&lt;div&gt;and &quot;ask human&quot; requests&lt;/div&gt;" style="edgeLabel;html=1;align=center;verticalAlign=middle;resizable=0;points=[];" vertex="1" connectable="0" parent="uHMyNf0UCAi8VWtBRE8t-34">
          <mxGeometry y="1" relative="1" as="geometry">
            <mxPoint x="-1" y="71" as="offset" />
          </mxGeometry>
        </mxCell>
        <mxCell id="uHMyNf0UCAi8VWtBRE8t-12" value="" style="rounded=0;whiteSpace=wrap;html=1;fillColor=#d5e8d4;strokeColor=#82b366;" vertex="1" parent="1">
          <mxGeometry x="2" y="474" width="892" height="80" as="geometry" />
        </mxCell>
        <mxCell id="uHMyNf0UCAi8VWtBRE8t-13" value="" style="points=[];aspect=fixed;html=1;align=center;shadow=0;dashed=0;fillColor=#FF6A00;strokeColor=none;shape=mxgraph.alibaba_cloud.kafka;" vertex="1" parent="1">
          <mxGeometry x="41.3" y="489" width="56.699999999999996" height="42" as="geometry" />
        </mxCell>
        <mxCell id="uHMyNf0UCAi8VWtBRE8t-14" value="Kafka" style="text;html=1;align=center;verticalAlign=middle;whiteSpace=wrap;rounded=0;fontStyle=1;fontSize=14;" vertex="1" parent="1">
          <mxGeometry x="38" y="524" width="60" height="30" as="geometry" />
        </mxCell>
        <mxCell id="uHMyNf0UCAi8VWtBRE8t-17" style="edgeStyle=orthogonalEdgeStyle;rounded=0;orthogonalLoop=1;jettySize=auto;html=1;" edge="1" parent="1" source="uHMyNf0UCAi8VWtBRE8t-5" target="uHMyNf0UCAi8VWtBRE8t-12">
          <mxGeometry relative="1" as="geometry">
            <Array as="points">
              <mxPoint x="419" y="424" />
              <mxPoint x="419" y="424" />
            </Array>
          </mxGeometry>
        </mxCell>
        <mxCell id="uHMyNf0UCAi8VWtBRE8t-18" value="Request more input&amp;nbsp;&lt;div&gt;from Chat agent&lt;/div&gt;&lt;div&gt;message: str&lt;/div&gt;" style="edgeLabel;html=1;align=center;verticalAlign=middle;resizable=0;points=[];" vertex="1" connectable="0" parent="uHMyNf0UCAi8VWtBRE8t-17">
          <mxGeometry x="-0.1835" y="1" relative="1" as="geometry">
            <mxPoint x="2" y="-43" as="offset" />
          </mxGeometry>
        </mxCell>
        <mxCell id="uHMyNf0UCAi8VWtBRE8t-19" value="Publish Updates&lt;div&gt;spec: str&lt;/div&gt;" style="edgeLabel;html=1;align=center;verticalAlign=middle;resizable=0;points=[];" vertex="1" connectable="0" parent="uHMyNf0UCAi8VWtBRE8t-17">
          <mxGeometry x="0.2811" y="-4" relative="1" as="geometry">
            <mxPoint as="offset" />
          </mxGeometry>
        </mxCell>
        <mxCell id="uHMyNf0UCAi8VWtBRE8t-20" style="edgeStyle=orthogonalEdgeStyle;rounded=0;orthogonalLoop=1;jettySize=auto;html=1;" edge="1" parent="1" source="uHMyNf0UCAi8VWtBRE8t-7" target="uHMyNf0UCAi8VWtBRE8t-12">
          <mxGeometry relative="1" as="geometry">
            <Array as="points">
              <mxPoint x="633" y="420" />
              <mxPoint x="633" y="420" />
            </Array>
          </mxGeometry>
        </mxCell>
        <mxCell id="uHMyNf0UCAi8VWtBRE8t-21" value="Publish generated HTML&lt;div&gt;genHTML: str&lt;/div&gt;" style="edgeLabel;html=1;align=center;verticalAlign=middle;resizable=0;points=[];" vertex="1" connectable="0" parent="uHMyNf0UCAi8VWtBRE8t-20">
          <mxGeometry x="-0.0715" y="1" relative="1" as="geometry">
            <mxPoint x="12" y="40" as="offset" />
          </mxGeometry>
        </mxCell>
        <mxCell id="uHMyNf0UCAi8VWtBRE8t-22" style="edgeStyle=orthogonalEdgeStyle;rounded=0;orthogonalLoop=1;jettySize=auto;html=1;entryX=0.175;entryY=0.95;entryDx=0;entryDy=0;entryPerimeter=0;" edge="1" parent="1" target="uHMyNf0UCAi8VWtBRE8t-7">
          <mxGeometry relative="1" as="geometry">
            <mxPoint x="540" y="469" as="sourcePoint" />
          </mxGeometry>
        </mxCell>
        <mxCell id="uHMyNf0UCAi8VWtBRE8t-23" value="Listen for builder updates&lt;div&gt;spec: str&lt;/div&gt;" style="edgeLabel;html=1;align=center;verticalAlign=middle;resizable=0;points=[];" vertex="1" connectable="0" parent="uHMyNf0UCAi8VWtBRE8t-22">
          <mxGeometry x="0.1076" y="3" relative="1" as="geometry">
            <mxPoint as="offset" />
          </mxGeometry>
        </mxCell>
        <mxCell id="uHMyNf0UCAi8VWtBRE8t-24" value="Mongo Db&lt;div&gt;(for hack used InMemory store)&lt;/div&gt;" style="shape=cylinder3;whiteSpace=wrap;html=1;boundedLbl=1;backgroundOutline=1;size=15;" vertex="1" parent="1">
          <mxGeometry x="299" y="19" width="132" height="80" as="geometry" />
        </mxCell>
        <mxCell id="uHMyNf0UCAi8VWtBRE8t-25" value="Image Generation Tool&lt;div&gt;prompt + context: str&lt;/div&gt;&lt;div&gt;&lt;br&gt;&lt;/div&gt;" style="rounded=1;whiteSpace=wrap;html=1;fillColor=#dae8fc;strokeColor=#6c8ebf;verticalAlign=top;" vertex="1" parent="1">
          <mxGeometry x="744" y="192" width="120" height="74" as="geometry" />
        </mxCell>
        <mxCell id="uHMyNf0UCAi8VWtBRE8t-26" value="Get Image Path" style="edgeStyle=orthogonalEdgeStyle;rounded=0;orthogonalLoop=1;jettySize=auto;html=1;entryX=0;entryY=0.5;entryDx=0;entryDy=0;" edge="1" parent="1" source="uHMyNf0UCAi8VWtBRE8t-7" target="uHMyNf0UCAi8VWtBRE8t-25">
          <mxGeometry relative="1" as="geometry" />
        </mxCell>
        <mxCell id="uHMyNf0UCAi8VWtBRE8t-27" value="Notify when image is generated" style="edgeStyle=orthogonalEdgeStyle;rounded=0;orthogonalLoop=1;jettySize=auto;html=1;entryX=0.898;entryY=0.025;entryDx=0;entryDy=0;entryPerimeter=0;" edge="1" parent="1" source="uHMyNf0UCAi8VWtBRE8t-25" target="uHMyNf0UCAi8VWtBRE8t-12">
          <mxGeometry relative="1" as="geometry" />
        </mxCell>
        <mxCell id="uHMyNf0UCAi8VWtBRE8t-28" value="Act Agent&lt;div&gt;messages: list[str]&lt;/div&gt;" style="rounded=1;whiteSpace=wrap;html=1;fillColor=#dae8fc;strokeColor=#6c8ebf;verticalAlign=top;" vertex="1" parent="1">
          <mxGeometry x="-201" y="199" width="120" height="60" as="geometry" />
        </mxCell>
        <mxCell id="uHMyNf0UCAi8VWtBRE8t-29" style="edgeStyle=orthogonalEdgeStyle;rounded=0;orthogonalLoop=1;jettySize=auto;html=1;entryX=0;entryY=0.5;entryDx=0;entryDy=0;exitX=1;exitY=1;exitDx=0;exitDy=0;" edge="1" parent="1" source="uHMyNf0UCAi8VWtBRE8t-33" target="uHMyNf0UCAi8VWtBRE8t-3">
          <mxGeometry relative="1" as="geometry" />
        </mxCell>
        <mxCell id="uHMyNf0UCAi8VWtBRE8t-30" value="Provides interface for&lt;div&gt;ChainLit&lt;/div&gt;&lt;div&gt;by passing messages via&amp;nbsp;&lt;/div&gt;&lt;div&gt;iframe.postMessage&lt;/div&gt;" style="edgeLabel;html=1;align=center;verticalAlign=middle;resizable=0;points=[];" vertex="1" connectable="0" parent="uHMyNf0UCAi8VWtBRE8t-29">
          <mxGeometry x="-0.4128" y="-2" relative="1" as="geometry">
            <mxPoint x="9" y="-2" as="offset" />
          </mxGeometry>
        </mxCell>
        <mxCell id="uHMyNf0UCAi8VWtBRE8t-31" style="edgeStyle=orthogonalEdgeStyle;rounded=0;orthogonalLoop=1;jettySize=auto;html=1;exitX=0;exitY=1;exitDx=0;exitDy=0;entryX=1;entryY=0.5;entryDx=0;entryDy=0;" edge="1" parent="1" source="uHMyNf0UCAi8VWtBRE8t-33" target="uHMyNf0UCAi8VWtBRE8t-28">
          <mxGeometry relative="1" as="geometry" />
        </mxCell>
        <mxCell id="uHMyNf0UCAi8VWtBRE8t-32" value="hosts endpoint for accessing" style="edgeLabel;html=1;align=center;verticalAlign=middle;resizable=0;points=[];" vertex="1" connectable="0" parent="uHMyNf0UCAi8VWtBRE8t-31">
          <mxGeometry x="-0.5163" y="3" relative="1" as="geometry">
            <mxPoint x="-56" y="-7" as="offset" />
          </mxGeometry>
        </mxCell>
        <mxCell id="uHMyNf0UCAi8VWtBRE8t-33" value="WebApp" style="rounded=0;whiteSpace=wrap;html=1;fillColor=#f8cecc;strokeColor=#b85450;" vertex="1" parent="1">
          <mxGeometry x="-58" y="39" width="120" height="60" as="geometry" />
        </mxCell>
        <mxCell id="uHMyNf0UCAi8VWtBRE8t-38" style="edgeStyle=orthogonalEdgeStyle;rounded=0;orthogonalLoop=1;jettySize=auto;html=1;exitX=0.5;exitY=1;exitDx=0;exitDy=0;entryX=0.186;entryY=0.025;entryDx=0;entryDy=0;entryPerimeter=0;" edge="1" parent="1" source="uHMyNf0UCAi8VWtBRE8t-3" target="uHMyNf0UCAi8VWtBRE8t-12">
          <mxGeometry relative="1" as="geometry" />
        </mxCell>
        <mxCell id="uHMyNf0UCAi8VWtBRE8t-39" value="Pass User messages&lt;div&gt;&amp;nbsp;to other agents&lt;/div&gt;" style="edgeLabel;html=1;align=center;verticalAlign=middle;resizable=0;points=[];" vertex="1" connectable="0" parent="uHMyNf0UCAi8VWtBRE8t-38">
          <mxGeometry x="-0.1556" y="-3" relative="1" as="geometry">
            <mxPoint as="offset" />
          </mxGeometry>
        </mxCell>
      </root>
    </mxGraphModel>
  </diagram>
</mxfile>
